<?xml version="1.0" encoding="utf-8"?>
<!-- Generator: Adobe Illustrator 15.0.2, SVG Export Plug-In  -->
<!DOCTYPE svg PUBLIC "-//W3C//DTD SVG 1.1//EN" "http://www.w3.org/Graphics/SVG/1.1/DTD/svg11.dtd" [
	<!ENTITY ns_flows "http://ns.adobe.com/Flows/1.0/">
]>
<svg version="1.1"
	 xmlns="http://www.w3.org/2000/svg" xmlns:xlink="http://www.w3.org/1999/xlink" xmlns:a="http://ns.adobe.com/AdobeSVGViewerExtensions/3.0/"
	 x="0px" y="0px" width="190px" height="150px" viewBox="0 0 190 150" overflow="visible" enable-background="new 0 0 190 150"
	 xml:space="preserve">
<defs>
</defs>
<rect display="none" width="190" height="150"/>
<g fill="white">
<path d="M37.568,40.187c18.192,2.713,114.521-3.439,126.086-12.638c-3.139,10.729-13.121,62.2-10.108,73.81
	c-40.108,3.414-105.851,12.052-119.492,14.854l1.412-2.86c0,0,101.961-12.617,113.892-15.437c0-6.763,3.497-55.618,10.474-64.569
	C108.724,40.69,65.083,44.432,41.565,43.42L37.568,40.187z"/>
<path d="M29.299,115.177c-1.619-8.855-0.476-62.659,2.416-72.647l-4.205,1.515c0,0,0.782,57.352-1.843,70.759
	L29.299,115.177z"/>
<path d="M13.157,134.49l2.636,2.687c0,0,115.854-17.39,155.118-11.731c5.735-43.982,4.318-93.5,15.089-115.542
	C163.433,12.776,31.452,29.651,9.111,21.767c2.323,44.76,1.144,98.897-3.502,120.149L10.163,143c0,0,1.05-87.066,3.679-115.189
	c63.605,0,154.691-3.418,166.109-13.347c-9.462,41.732-13.469,89.104-13.503,105.606C83.492,120.776,13.157,134.49,13.157,134.49z"
	/>
<path d="M44.227,91.139c7.099-9.548,16.036-18.473,22.099-21.615l-1.99-1.989c0,0-19.546,12.68-20.728,23.11
	L44.227,91.139z"/>
<path d="M77.984,64.355c22.12-3.651,50.045,1.184,59.125,11.815c2.033-0.721,6.926-6.491,6.926-6.491
	s-15.17-17.79-33.903-15.626l-2.455,7.474h-3.553c0,0,3.357-5.386,5.424-10.023c16.062-1.287,33.196,7.875,36.914,20.26
	c-4.567,3.035-6.003,4.439-8.492,8.407C125.61,65.593,94.588,64.562,77.278,66.785L77.984,64.355z"/>
<path d="M76.176,104.514l2.322-0.086c0,0,2.564-12.403,11.532-13.094c8.969-0.689,12.255,10.716,12.255,10.716h2.824
	c0,0-3.228-14.383-14.584-14.383C79.17,87.667,76.176,104.514,76.176,104.514z"/>
<path d="M64.778,53.915l-1.788,1.819c0,0,22.259,29.61,25.29,39.549l1.825-1.857
	C90.105,93.426,72.077,61.344,64.778,53.915z"/>
<path d="M109.644,63.149c0,0,3.548-2.682,6.11-8.004s1.577,0.395,1.577,0.395l-5.125,7.688L109.644,63.149z"/>
<path d="M116.937,63.228c0,0,3.587-1.699,5.815-5.815l3.056,1.281l-5.914,5.914L116.937,63.228z"/>
<path d="M123.244,65.396c2.612-1.034,4.987-1.93,7.146-4.09l1.626,1.626l-8.082,3.154L123.244,65.396z"/>
<path d="M130.437,67.863c2.763-0.496,2.763-0.496,4.98-4.488l0.641,2.415c0,0-0.493,0.493-3.253,3.253
	L130.437,67.863z"/>
<path d="M135.072,70.915c1.773,0,4.73-2.957,4.73-2.957l1.183,1.183l-5.913,2.957V70.915z"/>
<polygon points="44.101,84.517 46.466,85.601 47.01,83.084 43.115,82.644 "/>
<polygon points="49.718,73.083 54.844,77.026 53.562,78.308 49.57,74.315 "/>
<polygon points="58.589,68.057 57.554,69.092 61.25,71.211 62.63,69.831 "/>
<polygon points="81.751,64.41 81.751,59.975 83.131,59.975 82.539,64.805 "/>
<polygon points="91.311,59.285 89.833,63.917 91.508,63.917 92.001,59.876 "/>
<polygon points="96.83,64.706 96.83,60.271 98.21,60.271 97.521,64.41 "/>
</g>
</svg>
